<?xml version="1.0" encoding="utf-8"?>
<!-- Generator: Adobe Illustrator 27.6.1, SVG Export Plug-In . SVG Version: 6.00 Build 0)  -->
<svg version="1.1" id="Layer_1" xmlns="http://www.w3.org/2000/svg" xmlns:xlink="http://www.w3.org/1999/xlink" x="0px" y="0px"
	 viewBox="0 0 225.8 225.8" style="enable-background:new 0 0 225.8 225.8;" xml:space="preserve">
<style type="text/css">
	.st0{fill:#2F8BE0;}
</style>
<g>
	<g>
		<polygon class="st0" points="225.8,225.8 0,225.8 0,28.2 91.7,28.2 91.7,42.3 14.1,42.3 14.1,211.7 211.7,211.7 211.7,42.3 
			134.1,42.3 134.1,28.2 225.8,28.2 		"/>
	</g>
	<g>
		<path class="st0" d="M134.1,63.5H91.7V0h42.3V63.5z M105.8,49.4H120V14.1h-14.1V49.4z"/>
	</g>
	<g>
		<path class="st0" d="M141.1,197.6H28.2v-32.2l35.3-21.2V137l-14.1-14.1v-27l18.2-18.2h34.1L120,95.9v27L105.8,137v7.2l35.3,21.2
			V197.6z M42.3,183.5H127v-10.1l-35.3-21.2v-21l14.1-14.1v-15.3l-10-10H73.5l-10,10V117l14.1,14.1v21l-35.3,21.2V183.5z"/>
	</g>
	<g>
		<rect x="155.2" y="77.6" class="st0" width="42.3" height="14.1"/>
	</g>
	<g>
		<rect x="155.2" y="105.8" class="st0" width="42.3" height="14.1"/>
	</g>
	<g>
		<rect x="155.2" y="134.1" class="st0" width="42.3" height="14.1"/>
	</g>
	<g>
		<rect x="155.2" y="183.5" class="st0" width="42.3" height="14.1"/>
	</g>
</g>
</svg>
