<?xml version="1.0" encoding="utf-8"?>
<!-- Generator: Adobe Illustrator 27.6.1, SVG Export Plug-In . SVG Version: 6.00 Build 0)  -->
<svg version="1.1" id="Layer_1" xmlns="http://www.w3.org/2000/svg" xmlns:xlink="http://www.w3.org/1999/xlink" x="0px" y="0px"
	 viewBox="0 0 225.8 142.6" style="enable-background:new 0 0 225.8 142.6;" xml:space="preserve">
<style type="text/css">
	.st0{fill:#2F8BE0;}
</style>
<g>
	<g>
		<path class="st0" d="M154.5,142.6H71.3V68.3l23.8-17.8V50L83.2,38.1V15.4L98.6,0h28.7l15.4,15.4v22.7L130.7,50v0.5l23.8,17.8
			V142.6z M83.2,130.7h59.4V74.3l-23.8-17.8V45.1l11.9-11.9V20.3l-8.4-8.4h-18.8l-8.4,8.4v12.9L107,45.1v11.4L83.2,74.3V130.7z"/>
	</g>
	<g>
		<polygon class="st0" points="225.8,142.6 166.4,142.6 166.4,130.7 213.9,130.7 213.9,92.1 190.1,74.3 190.1,62.9 202,51 202,38.1 
			193.6,29.7 174.8,29.7 166.4,38.1 166.4,51 178.3,62.9 178.3,83.2 166.4,83.2 166.4,67.8 154.5,55.9 154.5,33.2 169.9,17.8 
			198.5,17.8 213.9,33.2 213.9,55.9 202,67.8 202,68.3 225.8,86.2 		"/>
	</g>
	<g>
		<polygon class="st0" points="59.4,142.6 0,142.6 0,86.2 23.8,68.3 23.8,67.8 11.9,55.9 11.9,33.2 27.2,17.8 55.9,17.8 71.3,33.2 
			71.3,55.9 59.4,67.8 59.4,83.2 47.5,83.2 47.5,62.9 59.4,51 59.4,38.1 51,29.7 32.2,29.7 23.8,38.1 23.8,51 35.7,62.9 35.7,74.3 
			11.9,92.1 11.9,130.7 59.4,130.7 		"/>
	</g>
</g>
</svg>
