<?xml version="1.0" encoding="utf-8"?>
<!-- Generator: Adobe Illustrator 23.0.3, SVG Export Plug-In . SVG Version: 6.00 Build 0)  -->
<svg version="1.1" id="Layer_1" xmlns="http://www.w3.org/2000/svg" xmlns:xlink="http://www.w3.org/1999/xlink" x="0px" y="0px"
	 viewBox="0 0 85 113.4" style="enable-background:new 0 0 85 113.4;" xml:space="preserve">
<style type="text/css">
	.st0{fill:#90CCF4;}
	.st1{fill:#FFD4BB;}
	.st2{opacity:0.5;fill:#E0B18F;}
	.st3{fill:#E86859;}
	.st4{fill:#FFFFFF;}
	.st5{fill:#3D3D3D;}
	.st6{fill:#676C7A;}
	.st7{fill:#CDDCF5;}
	.st8{fill:#E0EBFF;}
	.st9{opacity:0.4;}
	.st10{fill:#6684D1;}
	.st11{fill:#758EBF;}
	.st12{opacity:0.3;fill:#6E7175;}
	.st13{fill:#F0F5FF;}
</style>
<rect class="st0" width="85" height="113.4"/>
<polygon class="st1" points="53,80.8 42.3,114.1 31.7,80.8 31.8,78.4 31.9,74.7 32,71.3 32,71.3 32.2,63.9 32.2,63.9 32.4,56.7 
	52.3,56.7 52.5,63.9 52.5,63.9 52.7,69.8 52.7,71.3 52.8,74.9 52.9,78.4 "/>
<path class="st2" d="M52.6,67.7c-2.4,5.4-7.3,9.4-10.8,9.4c-3.4,0-7.9-4.1-9.7-8.6l0.1-4.6v-0.1l0.2-7.2h19.8l0.2,7.2v0.1L52.6,67.7
	z"/>
<path class="st1" d="M63,35.2c-0.6-0.3-1.2-0.3-1.6-0.1c0.2-12.4-2.8-23.9-19.6-23.9C25,11.2,22,22.7,22.2,35.1
	c-0.4-0.2-1-0.2-1.6,0.1c-2,1-1,4-1,4S20,49.7,21.1,51c0.6,0.7,1.4,1,2.1,1.1c1,6.7,10,17.9,18.6,17.9c7.9,0,17.6-11.2,18.6-17.9
	c0.6-0.1,1.5-0.4,2.1-1.1c1.1-1.4,1.5-11.8,1.5-11.8S65,36.2,63,35.2z"/>
<path class="st3" d="M35.8,57.1h13.8C49.6,57.1,42.2,65.8,35.8,57.1z"/>
<path class="st4" d="M35.8,57.1h13.8C49.6,57.1,42.2,62.6,35.8,57.1z"/>
<path class="st5" d="M60.5,19c-2.3-4.2-5.8-6.7-8.4-7.4c-0.6-0.6-1.6-1.2-3-1.9c-6.9-2.8-18-0.3-23.1,4.6
	c-6.1,5.9-4.9,16.9-4.4,19.9c0.6,4.7,1.6,8.4,1.6,8.4s-0.1-4.3,0.1-7.4c0.1-0.5,0.2-1,0.3-1.4C29.3,28.1,47,26,51,22.2
	c0,0.1,0,0.2,0,0.2c0.6,4,8.1,5.6,9.3,12.8c0.2,3.1,0.1,7.4,0.1,7.4S64.8,27,60.5,19z"/>
<path class="st6" d="M86.5,121c0,0-2.1-25.7-5.8-32.8C79.9,86,57.1,81,57.1,81l-14.7,48.1L27.6,81c0,0-22.8,5-23.6,7.1
	C0.3,95.3-1.8,121-1.8,121c8.1,5.2,28.4,10.9,44.2,10.9C58.1,131.8,78.4,126.2,86.5,121z"/>
<path class="st7" d="M32,71.3l-0.1,3.4l-0.1,3.7l-2-5.9C29.8,72.5,30,71.6,32,71.3z"/>
<path class="st7" d="M54.9,72.5l-2,5.9l-0.1-3.5l-0.1-3.6C54.7,71.6,54.9,72.5,54.9,72.5z"/>
<path class="st8" d="M55.9,87.3c0.4-3.7-5.8-6.5-8.8-2.3c0,0-2.3,6.7-3.7,18.4c-0.2,4.1-0.6,6-0.8,6.7c0,0-0.2,0-0.3,0
	c-0.2-0.7-0.6-2.6-0.9-6.8C39.9,91.7,37.7,85,37.7,85c-3-4.2-9.2-1.4-8.8,2.3c0.3,3.4,13.2,44.4,13.5,44.4
	C42.7,131.8,55.5,90.7,55.9,87.3z"/>
<g class="st9">
	<path class="st10" d="M28,83.6l14.2,48.1c0,0-11.6-12.3-19.8-26.8c4-2.7,4-2.7,4-2.7L12,97.7C12,97.7,19.1,89.1,28,83.6z"/>
	<path class="st10" d="M56.7,83.6l-14.2,48.1c0,0,11.6-12.3,19.8-26.8c-4-2.7-4-2.7-4-2.7l14.4-4.6C72.7,97.7,65.6,89.1,56.7,83.6z"
		/>
</g>
<g>
	<path class="st11" d="M28,78.7l14.2,53.1c0,0-11.6-13.5-19.8-29.5c4-3,4-3,4-3l-14.4-5C12,94.2,19.1,84.7,28,78.7z"/>
	<path class="st11" d="M56.7,78.7l-14.2,53.1c0,0,11.6-13.5,19.8-29.5c-4-3-4-3-4-3l14.4-5C72.7,94.2,65.6,84.7,56.7,78.7z"/>
</g>
<path class="st12" d="M54.9,74.1c0,0-2.4,4.9-7.9,10.9c2.7-1.5,9.4,3.8,11.5,8.3c0,0,0.5-6.8,0.3-11.8
	C57.8,78.8,55.9,76.1,54.9,74.1z"/>
<path class="st12" d="M29.8,74.1c0,0,2.4,4.9,7.9,10.9c-2.7-1.5-9.4,3.8-11.5,8.3c0,0-0.5-6.8-0.3-11.8
	C26.9,78.8,28.8,76.1,29.8,74.1z"/>
<path class="st13" d="M54.9,72.5c0,0-2.4,6.6-7.9,12.6c2.7-1.5,9.4,2.1,11.5,6.6c0,0,0.5-6.8,0.3-11.8
	C57.8,77.1,55.9,74.4,54.9,72.5z"/>
<path class="st13" d="M29.8,72.5c0,0,2.4,6.6,7.9,12.6c-2.7-1.5-9.4,2.1-11.5,6.6c0,0-0.5-6.8-0.3-11.8
	C26.9,77.1,28.8,74.4,29.8,72.5z"/>
<path class="st3" d="M35.8,57.1c0,0,6.4-2.1,13.8,0C42.2,57.1,35.8,57.1,35.8,57.1z"/>
</svg>
