<?xml version="1.0" encoding="utf-8"?>
<!-- Generator: Adobe Illustrator 23.0.3, SVG Export Plug-In . SVG Version: 6.00 Build 0)  -->
<svg version="1.1" id="Layer_1" xmlns="http://www.w3.org/2000/svg" xmlns:xlink="http://www.w3.org/1999/xlink" x="0px" y="0px"
	 viewBox="0 0 223.6 224.2" style="enable-background:new 0 0 223.6 224.2;" xml:space="preserve">
<style type="text/css">
	.st0{fill:#418EE6;}
	.st1{fill:#FFFFFF;}
</style>
<image style="display:none;overflow:visible;" width="225" height="225" xlink:href="download.png"  transform="matrix(1 0 0 1 -0.1304 0.3043)">
</image>
<path class="st0" d="M95.7,107.2H15.1C9.5,107.2,5,102.7,5,97.1V16.5C5,10.9,9.5,6.4,15.1,6.4h80.6c5.6,0,10.1,4.5,10.1,10.1v80.6
	C105.8,102.7,101.3,107.2,95.7,107.2z"/>
<path class="st1" d="M93.7,98.8H17.1c-2,0-3.7-1.7-3.7-3.7V18.5c0-2,1.7-3.7,3.7-3.7h76.6c2,0,3.7,1.7,3.7,3.7v76.6
	C97.3,97.1,95.7,98.8,93.7,98.8z"/>
<path class="st0" d="M208.3,107h-80.6c-5.6,0-10.1-4.5-10.1-10.1V16.3c0-5.6,4.5-10.1,10.1-10.1h80.6c5.6,0,10.1,4.5,10.1,10.1v80.6
	C218.4,102.5,213.9,107,208.3,107z"/>
<path class="st1" d="M206.3,98.6h-76.6c-2,0-3.7-1.7-3.7-3.7V18.3c0-2,1.7-3.7,3.7-3.7h76.6c2,0,3.7,1.7,3.7,3.7v76.6
	C210,96.9,208.3,98.6,206.3,98.6z"/>
<path class="st0" d="M95.7,220.9H15.1c-5.6,0-10.1-4.5-10.1-10.1v-80.6c0-5.6,4.5-10.1,10.1-10.1h80.6c5.6,0,10.1,4.5,10.1,10.1
	v80.6C105.8,216.4,101.3,220.9,95.7,220.9z"/>
<path class="st1" d="M93.7,212.5H17.1c-2,0-3.7-1.7-3.7-3.7v-76.6c0-2,1.7-3.7,3.7-3.7h76.6c2,0,3.7,1.7,3.7,3.7v76.6
	C97.3,210.8,95.7,212.5,93.7,212.5z"/>
<path class="st0" d="M208.3,220.7h-80.6c-5.6,0-10.1-4.5-10.1-10.1V130c0-5.6,4.5-10.1,10.1-10.1h80.6c5.6,0,10.1,4.5,10.1,10.1
	v80.6C218.4,216.1,213.9,220.7,208.3,220.7z"/>
<path class="st1" d="M206.3,212.2h-76.6c-2,0-3.7-1.7-3.7-3.7V132c0-2,1.7-3.7,3.7-3.7h76.6c2,0,3.7,1.7,3.7,3.7v76.6
	C210,210.6,208.3,212.2,206.3,212.2z"/>
</svg>
