<?xml version="1.0" encoding="utf-8"?>
<!-- Generator: Adobe Illustrator 27.6.1, SVG Export Plug-In . SVG Version: 6.00 Build 0)  -->
<svg version="1.1" id="Layer_1" xmlns="http://www.w3.org/2000/svg" xmlns:xlink="http://www.w3.org/1999/xlink" x="0px" y="0px"
	 viewBox="0 0 149.9 83.3" style="enable-background:new 0 0 149.9 83.3;" xml:space="preserve">
<style type="text/css">
	.st0{fill:#2F8BE0;}
</style>
<g>
	<g>
		<path class="st0" d="M74.9,83.3c-29.9,0-57.3-14.6-73.3-39.1L0,41.7l1.7-2.5C17.7,14.6,45.1,0,74.9,0c29.9,0,57.3,14.6,73.3,39.1
			l1.7,2.5l-1.7,2.5C132.2,68.7,104.8,83.3,74.9,83.3z M11.1,41.7C25.6,62,49.3,74.1,74.9,74.1c25.7,0,49.3-12.1,63.8-32.4
			C124.2,21.3,100.6,9.3,74.9,9.3C49.3,9.3,25.6,21.3,11.1,41.7z"/>
	</g>
</g>
<g>
	<path class="st0" d="M74.9,64.8c-12.8,0-23.1-10.4-23.1-23.1s10.4-23.1,23.1-23.1c12.8,0,23.1,10.4,23.1,23.1S87.7,64.8,74.9,64.8z
		 M74.9,27.8C67.3,27.8,61,34,61,41.7s6.2,13.9,13.9,13.9c7.7,0,13.9-6.2,13.9-13.9S82.6,27.8,74.9,27.8z"/>
</g>
</svg>
