<?xml version="1.0" encoding="utf-8"?>
<!-- Generator: Adobe Illustrator 23.0.3, SVG Export Plug-In . SVG Version: 6.00 Build 0)  -->
<svg version="1.1" id="Layer_1" xmlns="http://www.w3.org/2000/svg" xmlns:xlink="http://www.w3.org/1999/xlink" x="0px" y="0px"
	 viewBox="0 0 223.6 224.2" style="enable-background:new 0 0 223.6 224.2;" xml:space="preserve">
<style type="text/css">
	.st0{fill:#418EE6;}
	.st1{fill:#FFFFFF;}
</style>
<image style="display:none;overflow:visible;" width="225" height="225" xlink:href="download.png"  transform="matrix(1 0 0 1 -0.1304 0.3043)">
</image>
<path class="st0" d="M208.3,220.9H15.1c-5.6,0-10.1-4.5-10.1-10.1V17.5C5,11.9,9.5,7.4,15.1,7.4h193.3c5.6,0,10.1,4.5,10.1,10.1
	v193.3C218.4,216.4,213.9,220.9,208.3,220.9z"/>
<path class="st1" d="M206.3,212.5H17.1c-2,0-3.7-1.7-3.7-3.7V19.5c0-2,1.7-3.7,3.7-3.7h189.2c2,0,3.7,1.7,3.7,3.7v189.2
	C210,210.8,208.4,212.5,206.3,212.5z"/>
<rect x="69.4" y="52.7" class="st0" width="124.1" height="17.6"/>
<rect x="69.6" y="105.8" class="st0" width="124.1" height="17.6"/>
<rect x="69.6" y="158" class="st0" width="124.1" height="17.6"/>
<rect x="33.7" y="52.7" class="st0" width="17.6" height="17.6"/>
<rect x="33.7" y="105.3" class="st0" width="17.6" height="17.6"/>
<rect x="33.7" y="158" class="st0" width="17.6" height="17.6"/>
</svg>
