<?xml version="1.0" encoding="utf-8"?>
<!-- Generator: Adobe Illustrator 27.6.1, SVG Export Plug-In . SVG Version: 6.00 Build 0)  -->
<svg version="1.1" id="Layer_1" xmlns="http://www.w3.org/2000/svg" xmlns:xlink="http://www.w3.org/1999/xlink" x="0px" y="0px"
	 viewBox="0 0 107.6 122" style="enable-background:new 0 0 107.6 122;" xml:space="preserve">
<style type="text/css">
	.st0{fill:#2F8BE0;}
</style>
<g>
	<path class="st0" d="M87.6,122H19.3L15.1,42h76.7L87.6,122z M26.6,114.4h53.8l3.4-64.8H23.2L26.6,114.4z"/>
</g>
<g>
	<rect x="38.2" y="45.8" class="st0" width="7.6" height="72.5"/>
</g>
<g>
	<rect x="61.1" y="45.8" class="st0" width="7.6" height="72.5"/>
</g>
<g>
	<g>
		<g>
			
				<rect x="0.1" y="15.8" transform="matrix(0.9975 -7.132080e-02 7.132080e-02 0.9975 -1.2614 3.8672)" class="st0" width="106.8" height="7.6"/>
		</g>
		<g>
			<path class="st0" d="M34.5,21L34,13.3C33.5,7.1,38.3,1.6,44.6,1.1L59.8,0C66.1-0.4,71.5,4.3,72,10.6l0.5,7.6l-7.6,0.5l-0.5-7.6
				c-0.1-2.1-1.9-3.6-4.1-3.5L45.1,8.7c-1,0.1-1.9,0.5-2.6,1.3c-0.7,0.8-1,1.8-0.9,2.8l0.5,7.6L34.5,21z"/>
		</g>
	</g>
	<g>
		
			<rect x="99.6" y="16" transform="matrix(0.9974 -7.147211e-02 7.147211e-02 0.9974 -1.291 7.4443)" class="st0" width="7.6" height="11.4"/>
	</g>
	<g>
		
			<rect x="0.7" y="23.1" transform="matrix(0.9974 -7.144597e-02 7.144597e-02 0.9974 -2.049 0.394)" class="st0" width="7.6" height="11.4"/>
	</g>
</g>
<g>
	<rect x="87.8" y="30.5" class="st0" width="7.6" height="7.6"/>
</g>
<g>
	<rect x="72.5" y="26.7" class="st0" width="7.6" height="7.6"/>
</g>
<g>
	<rect x="11.5" y="30.5" class="st0" width="7.6" height="7.6"/>
</g>
<g>
	<rect x="57.3" y="30.5" class="st0" width="7.6" height="7.6"/>
</g>
<g>
	<rect x="26.8" y="30.5" class="st0" width="7.6" height="7.6"/>
</g>
<g>
	<rect x="42" y="26.7" class="st0" width="7.6" height="7.6"/>
</g>
<g>
	<rect x="99.2" y="34.3" class="st0" width="7.6" height="7.6"/>
</g>
<g>
	<rect x="95.4" y="45.8" class="st0" width="7.6" height="7.6"/>
</g>
<g>
	<rect x="3.9" y="42" class="st0" width="7.6" height="7.6"/>
</g>
</svg>
